PathFileType	4	(X/Y/Z)	c:/Users/goper/Files/vsCode/490R/osim_files/A01/A01_PWS_03.trc
DataRate	CameraRate	NumFrames	NumMarkers	Units                	OrigDataRate	OrigDataStartFrame	OrigNumFrames
120.00	120.00	4	36	mm	120.0	657	1750
                Frame#	Time	Mobility_markerset:LPSIS			Mobility_markerset:LASIS			Mobility_markerset:LTH1			Mobility_markerset:LTH2			Mobility_markerset:LTH3			Mobility_markerset:LTH4			Mobility_markerset:LLFE			Mobility_markerset:LMFE			Mobility_markerset:LSH1			Mobility_markerset:LSH2			Mobility_markerset:LSH3			Mobility_markerset:LSH4			Mobility_markerset:LLMAL			Mobility_markerset:LMMAL			Mobility_markerset:LCAL			Mobility_markerset:LMTP5			Mobility_markerset:LTOE			Mobility_markerset:LMTP1			Mobility_markerset:RPSIS			Mobility_markerset:RASIS			Mobility_markerset:RTH1			Mobility_markerset:RTH2			Mobility_markerset:RTH3			Mobility_markerset:RTH4			Mobility_markerset:RLFE			Mobility_markerset:RMFE			Mobility_markerset:RSH1			Mobility_markerset:RSH2			Mobility_markerset:RSH3			Mobility_markerset:RSH4			Mobility_markerset:RLMAL			Mobility_markerset:RMMAL			Mobility_markerset:RCAL			Mobility_markerset:RMTP1			Mobility_markerset:RTOE			Mobility_markerset:RMTP5		
		X1	Y1	Z1	X2	Y2	Z2	X3	Y3	Z3	X4	Y4	Z4	X5	Y5	Z5	X6	Y6	Z6	X7	Y7	Z7	X8	Y8	Z8	X9	Y9	Z9	X10	Y10	Z10	X11	Y11	Z11	X12	Y12	Z12	X13	Y13	Z13	X14	Y14	Z14	X15	Y15	Z15	X16	Y16	Z16	X17	Y17	Z17	X18	Y18	Z18	X19	Y19	Z19	X20	Y20	Z20	X21	Y21	Z21	X22	Y22	Z22	X23	Y23	Z23	X24	Y24	Z24	X25	Y25	Z25	X26	Y26	Z26	X27	Y27	Z27	X28	Y28	Z28	X29	Y29	Z29	X30	Y30	Z30	X31	Y31	Z31	X32	Y32	Z32	X33	Y33	Z33	X34	Y34	Z34	X35	Y35	Z35	X36	Y36	Z36

657	5.46667	-242.25702	1018.81610	339.20892	-485.31894	985.17291	398.17676	-495.82843	671.77417	447.46115	-521.46155	633.31384	434.81870	-548.11877	701.16223	441.62802	-564.74658	660.53894	426.56793	-598.73804	534.84808	393.92633	-609.69751	548.97546	255.42000	-625.60950	368.04764	379.93976	-643.31525	324.56924	381.63144	-684.37616	387.28308	378.01688	-691.84399	342.04263	379.03488	-751.41498	99.40758	360.03745	-741.23413	95.41373	276.09158	-686.79211	46.81442	319.67538	-900.82355	102.33292	375.99429	-914.61206	133.01613	308.26721	-904.50598	115.61151	275.41232	-234.77037	1026.99524	238.18134	-454.46930	964.96283	135.77359	-245.25101	670.13025	91.95009	-246.40919	626.60248	99.69412	-307.91675	662.26831	88.98708	-298.39679	621.16101	95.74682	-255.57420	480.48532	142.10323	-274.62222	493.93484	260.62946	-91.82268	331.74503	149.67932	-76.16438	289.60986	152.52611	-147.09929	304.76773	145.01779	-125.15393	265.84949	148.43039	-30.05634	114.82062	191.66989	-60.97343	130.16090	274.41296	29.56173	99.58808	243.03220	-165.44635	42.69034	282.06528	-202.51004	48.42178	235.78574	-144.92755	30.58568	168.27370
658	5.47500	-254.52670	1017.28857	339.85715	-498.27246	983.15015	398.92990	-507.39752	670.38538	447.53387	-533.11255	631.87677	435.27289	-560.03998	699.68811	441.66522	-576.69220	658.92114	427.12146	-607.99561	534.64154	393.29013	-616.53296	546.26904	256.22604	-632.21478	368.12106	380.67535	-650.73737	323.32944	381.54184	-692.07117	385.82065	377.39795	-699.13586	340.62616	378.25354	-756.03174	97.53283	360.00549	-744.11737	93.43739	276.04385	-689.43304	47.06709	320.43149	-905.18951	97.44364	373.61996	-919.39594	127.53205	305.64523	-908.31970	109.62454	273.17914	-246.96257	1025.36426	238.80359	-466.14355	962.68414	135.80969	-255.06125	668.95325	92.22836	-255.77776	625.65393	100.12981	-317.33414	661.20862	88.92441	-307.73593	620.04950	95.89711	-263.95944	479.36313	142.22250	-283.66867	492.60510	260.64633	-97.73858	333.27789	149.48698	-81.36784	291.57413	152.26678	-152.45998	305.37598	144.81851	-129.60986	266.36987	148.61131	-31.96216	117.47523	191.12852	-63.21523	132.34982	273.80563	27.88437	103.43794	242.55959	-165.73225	42.78706	281.94754	-202.76602	48.27878	235.60353	-145.07364	30.68604	168.32310
659	5.48333	-266.95386	1015.96918	340.33594	-511.47113	981.48077	399.82660	-518.63782	669.05695	447.71820	-544.37726	630.42584	436.03995	-571.63440	698.51746	441.76617	-588.13916	657.41095	427.85391	-616.63214	534.32574	393.15604	-624.27374	546.99591	253.94250	-638.67181	367.87054	380.70432	-656.92493	322.63156	381.43884	-698.53687	384.96179	377.09872	-705.67328	339.15552	377.19244	-759.30743	96.19897	360.07797	-746.67932	92.12589	275.94421	-691.44141	47.35103	320.87808	-908.38983	93.59902	372.55688	-924.17218	125.17822	303.99893	-910.84058	105.81141	272.15204	-259.32629	1023.89838	239.35606	-478.02777	960.33179	135.76785	-265.04141	668.10370	92.69821	-265.48587	624.71887	100.49290	-327.14493	660.03766	89.08975	-317.50064	618.82281	95.92850	-272.98383	478.26151	142.12483	-293.08728	491.13727	260.55649	-104.02664	335.05707	149.26408	-86.92719	293.65759	151.98392	-158.20483	306.21164	144.51186	-134.82817	267.80991	148.31630	-34.07607	120.45927	190.57993	-65.79501	134.64380	273.17468	25.74823	107.55672	242.18765	-166.05684	42.84064	281.80157	-202.99957	48.21621	235.46005	-144.93083	31.00967	168.23769
660	5.49167	-279.51880	1014.80664	340.78174	-524.79828	980.25116	400.56110	-531.01569	668.34198	450.20773	-555.02643	629.09332	436.89993	-582.25726	697.44214	441.99756	-599.02222	656.31390	428.63989	-624.47760	534.64856	393.22470	-632.33069	547.24524	253.54865	-644.21088	367.92816	380.70071	-661.95618	322.33649	381.32043	-704.40070	384.23828	377.05667	-710.42810	338.68484	377.88138	-760.73022	95.10925	359.74442	-748.03687	91.11346	275.84232	-692.05975	47.27611	320.76743	-909.50140	90.53951	372.36768	-926.21179	122.09361	303.60577	-912.00287	102.38963	271.72900	-271.80518	1022.62061	239.85838	-490.29749	958.13464	135.84599	-275.42892	667.20044	93.12482	-275.72073	623.84583	100.69228	-337.46097	658.83325	89.07250	-327.63000	617.66797	95.82520	-282.30496	477.28778	141.84299	-303.06253	489.88950	260.35373	-110.55981	337.12601	149.08174	-93.04608	295.97049	151.80595	-164.21779	307.23740	144.17177	-140.25230	269.55185	147.87737	-36.47191	123.71943	189.92917	-68.62727	137.28979	272.51385	23.44281	112.32565	241.61433	-166.42534	42.85256	281.68915	-203.20827	48.22889	235.29161	-145.41298	31.08638	168.49170
